<?xml version="1.0" standalone="no"?>
<!DOCTYPE svg PUBLIC "-//W3C//DTD SVG 20010904//EN"
 "http://www.w3.org/TR/2001/REC-SVG-20010904/DTD/svg10.dtd">
<svg version="1.0" xmlns="http://www.w3.org/2000/svg"
 width="197.000000pt" height="79.000000pt" viewBox="0 0 197.000000 79.000000"
 preserveAspectRatio="xMidYMid meet">

<g transform="translate(0.000000,79.000000) scale(0.100000,-0.100000)"
fill="#000000" stroke="none">
<path d="M340 713 c-14 -3 -29 -9 -34 -14 -6 -5 -20 -9 -33 -9 -13 0 -23 -5
-23 -11 0 -8 -5 -7 -15 1 -18 15 -25 10 -28 -19 -1 -11 -7 -21 -14 -21 -6 0
-16 -6 -20 -14 -4 -8 -22 -16 -38 -19 -17 -2 -30 -10 -30 -18 0 -8 -4 -17 -10
-21 -5 -4 -10 -22 -10 -40 0 -28 -4 -33 -26 -36 -22 -3 -28 -10 -34 -40 -4
-20 -12 -43 -17 -50 -8 -9 -5 -19 12 -37 13 -14 29 -25 36 -25 7 0 14 -10 16
-22 2 -18 9 -22 28 -20 14 2 38 4 53 6 15 2 35 10 44 18 13 14 19 14 42 2 14
-8 34 -14 44 -14 16 0 17 -8 12 -89 -6 -102 -1 -111 59 -103 l38 4 -4 67 c-3
42 0 78 9 99 14 33 40 43 49 18 4 -10 15 -13 40 -9 18 3 40 1 46 -5 7 -6 33
-9 57 -8 34 2 46 7 52 23 4 11 14 23 23 26 9 4 16 13 16 22 0 8 5 15 10 15 25
0 -5 76 -32 84 -18 4 -25 45 -11 59 9 9 11 57 2 57 -3 0 -18 12 -32 26 -16 16
-42 28 -67 31 -31 4 -40 10 -40 25 0 12 -4 16 -11 12 -6 -3 -15 -1 -19 6 -6 9
-12 9 -31 0 -18 -10 -24 -10 -27 -1 -3 9 -7 9 -17 1 -11 -9 -14 -6 -12 16 2
30 -8 35 -53 27z"/>
<path d="M884 569 c-24 -27 -23 -80 6 -196 26 -103 54 -163 77 -163 29 0 78
39 102 80 29 52 25 89 -15 115 -29 20 -30 22 -17 53 17 42 8 76 -29 107 -38
32 -97 34 -124 4z m100 -25 c26 -26 20 -87 -11 -118 -43 -43 -58 -32 -61 48
-3 71 4 86 40 86 9 0 24 -7 32 -16z m50 -160 c22 -8 20 -50 -4 -89 -29 -47
-47 -50 -70 -12 -26 41 -22 78 10 94 28 14 41 16 64 7z"/>
<path d="M1356 468 c-21 -189 -13 -263 29 -263 17 0 19 6 17 33 -5 46 21 82
58 82 36 0 54 -34 48 -87 -4 -35 1 -40 20 -21 25 25 6 120 -28 138 -30 16 -79
11 -99 -9 -19 -19 -19 -17 -14 80 5 85 4 99 -9 99 -11 0 -17 -15 -22 -52z"/>
<path d="M1830 475 c-41 -30 -59 -60 -60 -96 0 -41 32 -63 97 -64 35 0 58 -5
61 -13 2 -7 -12 -28 -32 -48 -38 -38 -45 -54 -22 -54 17 0 82 70 91 99 11 36
-11 50 -83 53 -61 3 -67 5 -70 26 -5 30 13 50 60 69 43 17 47 27 19 43 -25 13
-22 14 -61 -15z"/>
<path d="M1710 468 c0 -2 -2 -42 -3 -89 -2 -96 -19 -129 -64 -129 -36 0 -67
75 -58 141 6 40 4 49 -8 49 -22 0 -30 -33 -22 -93 17 -128 72 -178 138 -127
36 28 59 104 55 181 -2 51 -6 64 -20 67 -10 2 -18 2 -18 0z"/>
<path d="M1225 410 c-73 -16 -123 -82 -111 -146 17 -87 130 -82 187 8 44 71
-3 154 -76 138z m53 -73 c3 -31 -2 -43 -27 -68 -59 -59 -130 -20 -86 47 19 30
74 65 95 62 9 -2 16 -17 18 -41z"/>
</g>
</svg>
